<svg
    xmlns="http://www.w3.org/2000/svg"
    width="33.52"
    height="30.27"
    viewBox="0 0 33.52 30.27"
>
    <path 
        d="M35.2,13c-.68.7-1.39,1.12-1.57.94L28.21,8.54c-.19-.19.22-.9.9-1.61h0c.68-.7,1.39-1.12,1.57-.94l5.43,5.37c.18.19-.22.9-.91,1.61Z" 
        transform="translate(-2.65 -4.89)"
    />
    
    <path 
        d="M15.2,12.26c-.8,0-1.45-.17-1.45-.38l-.1-6.23c0-.21.65-.39,1.45-.39h0c.8,0,1.45.17,1.46.39l.09,6.23c0,.21-.64.38-1.45.38Z" 
        transform="translate(-2.65 -4.89)"
    />
    
    <path 
        d="M23.7,24.89a1.32,1.32,0,0,1-1.45-1.09L22.16,6c0-.61.64-1.1,1.44-1.11h0A1.31,1.31,0,0,1,25.06,6l.1,17.8a1.32,1.32,0,0,1-1.45,1.1Z" 
        transform="translate(-2.65 -4.89)"
    />
    
    <path 
        d="M9.69,34.18c-.69.7-1.39,1.12-1.58.94L2.69,29.75c-.19-.19.22-.9.91-1.61h0C4.29,27.44,5,27,5.18,27.2l5.42,5.37c.19.18-.22.9-.91,1.61Z" 
        transform="translate(-2.65 -4.89)"
    />
    
    <path 
        d="M6.69,24.89c-.8,0-1.45-.49-1.45-1.09L5.15,6c0-.61.64-1.1,1.44-1.11h0A1.31,1.31,0,0,1,8.05,6l.1,17.8a1.32,1.32,0,0,1-1.45,1.1Z" 
        transform="translate(-2.65 -4.89)"
    />
    
    <path 
        d="M24,35.16c-.8,0-1.45-.2-1.46-.44l-.09-7.12c0-.24.64-.44,1.44-.44h0c.8,0,1.45.2,1.45.44l.1,7.12c0,.24-.65.44-1.45.44Z" 
        transform="translate(-2.65 -4.89)"
    />
    
    <path 
        d="M32.21,34.89c-.8,0-1.45-.49-1.45-1.09L30.66,16c0-.61.65-1.1,1.45-1.11h0A1.33,1.33,0,0,1,33.57,16l.09,17.8c0,.6-.64,1.1-1.44,1.1Z" 
        transform="translate(-2.65 -4.89)"
    />
    
    <path 
        d="M15.2,34.89c-.8,0-1.45-.49-1.45-1.09L13.65,16c0-.61.65-1.1,1.45-1.11h0A1.33,1.33,0,0,1,16.56,16l.09,17.8a1.31,1.31,0,0,1-1.45,1.1Z" 
        transform="translate(-2.65 -4.89)"
    />
</svg>